<?xml version="1.0" standalone="no"?>
<!DOCTYPE svg PUBLIC "-//W3C//DTD SVG 20010904//EN"
 "http://www.w3.org/TR/2001/REC-SVG-20010904/DTD/svg10.dtd">
<svg version="1.0" xmlns="http://www.w3.org/2000/svg"
 width="1200.000000pt" height="1200.000000pt" viewBox="0 0 1200.000000 1200.000000"
 preserveAspectRatio="xMidYMid meet">

<g transform="translate(0.000000,1200.000000) scale(0.100000,-0.100000)"
fill="#000000" stroke="none">
<path d="M4130 6900 l0 -1500 185 0 185 0 0 35 0 35 -150 0 -150 0 0 1430 0
1430 150 0 150 0 0 35 0 35 -185 0 -185 0 0 -1500z"/>
<path d="M7500 8365 l0 -35 150 0 150 0 0 -1430 0 -1430 -150 0 -150 0 0 -35
0 -35 185 0 185 0 0 1500 0 1500 -185 0 -185 0 0 -35z"/>
<path d="M5510 6900 l0 -770 70 0 70 0 0 770 0 770 -70 0 -70 0 0 -770z"/>
<path d="M6350 6900 l0 -770 70 0 70 0 0 770 0 770 -70 0 -70 0 0 -770z"/>
<path d="M5230 6900 l0 -350 70 0 70 0 0 350 0 350 -70 0 -70 0 0 -350z"/>
<path d="M6070 6900 l0 -350 70 0 70 0 0 350 0 350 -70 0 -70 0 0 -350z"/>
<path d="M6630 6900 l0 -350 70 0 70 0 0 350 0 350 -70 0 -70 0 0 -350z"/>
<path d="M4950 6900 l0 -140 65 0 65 0 0 140 0 140 -65 0 -65 0 0 -140z"/>
<path d="M5790 6900 l0 -140 70 0 70 0 0 140 0 140 -70 0 -70 0 0 -140z"/>
<path d="M6920 6900 l0 -140 65 0 65 0 0 140 0 140 -65 0 -65 0 0 -140z"/>
<path d="M4395 4854 c-16 -2 -60 -9 -97 -15 l-68 -11 0 -484 0 -484 70 0 70 0
0 439 0 439 23 6 c12 3 56 6 98 6 122 0 201 -50 227 -142 28 -101 -51 -206
-169 -224 -33 -5 -54 -17 -84 -47 -37 -37 -39 -40 -20 -48 11 -4 45 -8 76 -8
91 -1 132 -50 179 -211 12 -41 31 -105 42 -142 l21 -68 73 0 c41 0 74 2 74 4
0 3 -5 17 -10 32 -6 15 -27 81 -46 147 -43 146 -65 191 -116 239 l-40 37 40
20 c46 23 98 80 120 130 8 20 15 63 16 97 2 118 -73 216 -201 264 -57 22 -206
34 -278 24z"/>
<path d="M6545 4850 c-155 -34 -269 -119 -335 -249 -104 -207 -69 -471 82
-622 93 -93 257 -149 392 -135 63 6 182 41 191 56 3 4 -3 28 -12 52 l-16 45
-71 -25 c-229 -79 -433 60 -467 318 -12 95 4 191 47 278 76 155 225 213 423
167 35 -9 65 -14 66 -13 5 6 35 81 35 88 0 14 -133 42 -215 46 -44 1 -98 -1
-120 -6z"/>
<path d="M3330 4785 l0 -55 140 0 140 0 0 -435 0 -435 75 0 75 0 0 435 0 435
135 0 135 0 0 55 0 55 -350 0 -350 0 0 -55z"/>
<path d="M5455 4828 c-50 -136 -345 -962 -345 -965 0 -2 32 -3 72 -1 l71 3 37
110 37 110 161 3 c183 3 187 5 128 70 l-34 37 -109 5 -108 5 80 231 80 231 89
-261 c49 -143 111 -325 139 -403 l49 -143 74 0 c41 0 74 3 74 8 0 4 -78 223
-174 487 l-173 480 -72 3 c-51 2 -73 -1 -76 -10z"/>
<path d="M7100 4350 l0 -490 70 0 70 0 0 490 0 490 -70 0 -70 0 0 -490z"/>
<path d="M7540 4683 c-153 -207 -199 -276 -216 -325 -15 -45 -19 -158 -5 -158
5 0 33 32 61 70 l52 71 15 -28 c8 -15 66 -124 130 -240 l115 -213 84 0 c46 0
84 2 84 4 0 3 -73 125 -161 273 -89 147 -166 278 -172 290 -8 19 8 45 137 212
80 104 146 192 146 195 0 3 -35 6 -77 6 l-78 0 -115 -157z"/>
<path d="M7960 4785 l0 -55 140 0 140 0 0 -435 0 -435 75 0 75 0 0 435 0 435
135 0 135 0 0 55 0 55 -350 0 -350 0 0 -55z"/>
</g>
</svg>
